<mxfile host="app.diagrams.net" modified="2023-10-06T14:03:04.173Z" agent="Mozilla/5.0 (Windows NT 10.0; Win64; x64) AppleWebKit/537.36 (KHTML, like Gecko) Chrome/117.0.0.0 Safari/537.36" etag="fBOal-V-FyOY4BvAdy5y" version="22.0.3" type="github">
  <diagram name="페이지-1" id="guudDBw6Li5g7Zw-pUTp">
    <mxGraphModel dx="1139" dy="1905" grid="1" gridSize="10" guides="1" tooltips="1" connect="1" arrows="1" fold="1" page="1" pageScale="1" pageWidth="827" pageHeight="1169" math="0" shadow="0">
      <root>
        <mxCell id="0" />
        <mxCell id="1" parent="0" />
        <mxCell id="H2Y4vnoz1PG0eW4zArF_-1" value="상품 목록 조회" style="ellipse;whiteSpace=wrap;html=1;" vertex="1" parent="1">
          <mxGeometry x="180" y="120" width="120" height="50" as="geometry" />
        </mxCell>
        <mxCell id="H2Y4vnoz1PG0eW4zArF_-18" value="" style="edgeStyle=orthogonalEdgeStyle;rounded=0;orthogonalLoop=1;jettySize=auto;html=1;endArrow=block;endFill=0;" edge="1" parent="1" source="H2Y4vnoz1PG0eW4zArF_-6" target="H2Y4vnoz1PG0eW4zArF_-17">
          <mxGeometry relative="1" as="geometry" />
        </mxCell>
        <mxCell id="H2Y4vnoz1PG0eW4zArF_-25" style="edgeStyle=orthogonalEdgeStyle;rounded=0;orthogonalLoop=1;jettySize=auto;html=1;exitX=1;exitY=0.3333333333333333;exitDx=0;exitDy=0;exitPerimeter=0;entryX=0;entryY=0.5;entryDx=0;entryDy=0;" edge="1" parent="1" source="H2Y4vnoz1PG0eW4zArF_-6" target="H2Y4vnoz1PG0eW4zArF_-14">
          <mxGeometry relative="1" as="geometry" />
        </mxCell>
        <mxCell id="H2Y4vnoz1PG0eW4zArF_-43" style="edgeStyle=orthogonalEdgeStyle;rounded=0;orthogonalLoop=1;jettySize=auto;html=1;exitX=1;exitY=0.3333333333333333;exitDx=0;exitDy=0;exitPerimeter=0;entryX=0;entryY=0.5;entryDx=0;entryDy=0;" edge="1" parent="1" source="H2Y4vnoz1PG0eW4zArF_-6" target="H2Y4vnoz1PG0eW4zArF_-12">
          <mxGeometry relative="1" as="geometry" />
        </mxCell>
        <mxCell id="H2Y4vnoz1PG0eW4zArF_-44" style="edgeStyle=orthogonalEdgeStyle;rounded=0;orthogonalLoop=1;jettySize=auto;html=1;exitX=1;exitY=0.3333333333333333;exitDx=0;exitDy=0;exitPerimeter=0;entryX=0;entryY=0.5;entryDx=0;entryDy=0;" edge="1" parent="1" source="H2Y4vnoz1PG0eW4zArF_-6" target="H2Y4vnoz1PG0eW4zArF_-13">
          <mxGeometry relative="1" as="geometry" />
        </mxCell>
        <mxCell id="H2Y4vnoz1PG0eW4zArF_-45" style="edgeStyle=orthogonalEdgeStyle;rounded=0;orthogonalLoop=1;jettySize=auto;html=1;exitX=1;exitY=0.3333333333333333;exitDx=0;exitDy=0;exitPerimeter=0;entryX=0;entryY=0.5;entryDx=0;entryDy=0;" edge="1" parent="1" source="H2Y4vnoz1PG0eW4zArF_-6" target="H2Y4vnoz1PG0eW4zArF_-11">
          <mxGeometry relative="1" as="geometry" />
        </mxCell>
        <mxCell id="H2Y4vnoz1PG0eW4zArF_-6" value="회원" style="shape=umlActor;verticalLabelPosition=bottom;verticalAlign=top;html=1;outlineConnect=0;" vertex="1" parent="1">
          <mxGeometry x="30" y="355" width="30" height="60" as="geometry" />
        </mxCell>
        <mxCell id="H2Y4vnoz1PG0eW4zArF_-41" style="edgeStyle=orthogonalEdgeStyle;rounded=0;orthogonalLoop=1;jettySize=auto;html=1;exitX=1;exitY=0.5;exitDx=0;exitDy=0;entryX=0;entryY=0.5;entryDx=0;entryDy=0;dashed=1;" edge="1" parent="1" source="H2Y4vnoz1PG0eW4zArF_-11" target="H2Y4vnoz1PG0eW4zArF_-38">
          <mxGeometry relative="1" as="geometry" />
        </mxCell>
        <mxCell id="H2Y4vnoz1PG0eW4zArF_-11" value="예약 열람" style="ellipse;whiteSpace=wrap;html=1;" vertex="1" parent="1">
          <mxGeometry x="180" y="420" width="120" height="50" as="geometry" />
        </mxCell>
        <mxCell id="H2Y4vnoz1PG0eW4zArF_-47" style="edgeStyle=orthogonalEdgeStyle;rounded=0;orthogonalLoop=1;jettySize=auto;html=1;exitX=1;exitY=0.5;exitDx=0;exitDy=0;entryX=0;entryY=0.5;entryDx=0;entryDy=0;dashed=1;" edge="1" parent="1" source="H2Y4vnoz1PG0eW4zArF_-12" target="H2Y4vnoz1PG0eW4zArF_-38">
          <mxGeometry relative="1" as="geometry" />
        </mxCell>
        <mxCell id="H2Y4vnoz1PG0eW4zArF_-12" value="상품 주문" style="ellipse;whiteSpace=wrap;html=1;" vertex="1" parent="1">
          <mxGeometry x="180" y="240" width="120" height="50" as="geometry" />
        </mxCell>
        <mxCell id="H2Y4vnoz1PG0eW4zArF_-39" style="edgeStyle=orthogonalEdgeStyle;rounded=0;orthogonalLoop=1;jettySize=auto;html=1;exitX=1;exitY=0.5;exitDx=0;exitDy=0;dashed=1;" edge="1" parent="1" source="H2Y4vnoz1PG0eW4zArF_-13" target="H2Y4vnoz1PG0eW4zArF_-38">
          <mxGeometry relative="1" as="geometry" />
        </mxCell>
        <mxCell id="H2Y4vnoz1PG0eW4zArF_-13" value="주문결제" style="ellipse;whiteSpace=wrap;html=1;" vertex="1" parent="1">
          <mxGeometry x="180" y="360" width="120" height="50" as="geometry" />
        </mxCell>
        <mxCell id="H2Y4vnoz1PG0eW4zArF_-40" style="edgeStyle=orthogonalEdgeStyle;rounded=0;orthogonalLoop=1;jettySize=auto;html=1;exitX=1;exitY=0.5;exitDx=0;exitDy=0;entryX=0;entryY=0.5;entryDx=0;entryDy=0;dashed=1;" edge="1" parent="1" source="H2Y4vnoz1PG0eW4zArF_-14" target="H2Y4vnoz1PG0eW4zArF_-38">
          <mxGeometry relative="1" as="geometry" />
        </mxCell>
        <mxCell id="H2Y4vnoz1PG0eW4zArF_-14" value="상품 예약" style="ellipse;whiteSpace=wrap;html=1;" vertex="1" parent="1">
          <mxGeometry x="180" y="300" width="120" height="50" as="geometry" />
        </mxCell>
        <mxCell id="H2Y4vnoz1PG0eW4zArF_-15" value="회원가입" style="ellipse;whiteSpace=wrap;html=1;" vertex="1" parent="1">
          <mxGeometry x="180" y="60" width="120" height="50" as="geometry" />
        </mxCell>
        <mxCell id="H2Y4vnoz1PG0eW4zArF_-22" style="edgeStyle=orthogonalEdgeStyle;rounded=0;orthogonalLoop=1;jettySize=auto;html=1;exitX=0.5;exitY=0.5;exitDx=0;exitDy=0;exitPerimeter=0;entryX=0;entryY=0.5;entryDx=0;entryDy=0;" edge="1" parent="1" source="H2Y4vnoz1PG0eW4zArF_-17" target="H2Y4vnoz1PG0eW4zArF_-1">
          <mxGeometry relative="1" as="geometry" />
        </mxCell>
        <mxCell id="H2Y4vnoz1PG0eW4zArF_-46" style="edgeStyle=orthogonalEdgeStyle;rounded=0;orthogonalLoop=1;jettySize=auto;html=1;exitX=0.5;exitY=0.5;exitDx=0;exitDy=0;exitPerimeter=0;entryX=0;entryY=0.5;entryDx=0;entryDy=0;" edge="1" parent="1" source="H2Y4vnoz1PG0eW4zArF_-17" target="H2Y4vnoz1PG0eW4zArF_-15">
          <mxGeometry relative="1" as="geometry" />
        </mxCell>
        <mxCell id="H2Y4vnoz1PG0eW4zArF_-49" style="edgeStyle=orthogonalEdgeStyle;rounded=0;orthogonalLoop=1;jettySize=auto;html=1;exitX=0.5;exitY=0.5;exitDx=0;exitDy=0;exitPerimeter=0;entryX=0;entryY=0.5;entryDx=0;entryDy=0;" edge="1" parent="1" source="H2Y4vnoz1PG0eW4zArF_-17" target="H2Y4vnoz1PG0eW4zArF_-48">
          <mxGeometry relative="1" as="geometry" />
        </mxCell>
        <mxCell id="H2Y4vnoz1PG0eW4zArF_-17" value="고객" style="shape=umlActor;verticalLabelPosition=bottom;verticalAlign=top;html=1;outlineConnect=0;" vertex="1" parent="1">
          <mxGeometry x="30" y="175" width="30" height="60" as="geometry" />
        </mxCell>
        <mxCell id="H2Y4vnoz1PG0eW4zArF_-36" style="edgeStyle=orthogonalEdgeStyle;rounded=0;orthogonalLoop=1;jettySize=auto;html=1;exitX=0;exitY=0.5;exitDx=0;exitDy=0;entryX=1;entryY=0.5;entryDx=0;entryDy=0;dashed=1;" edge="1" parent="1" source="H2Y4vnoz1PG0eW4zArF_-32" target="H2Y4vnoz1PG0eW4zArF_-1">
          <mxGeometry relative="1" as="geometry" />
        </mxCell>
        <mxCell id="H2Y4vnoz1PG0eW4zArF_-50" style="edgeStyle=orthogonalEdgeStyle;rounded=0;orthogonalLoop=1;jettySize=auto;html=1;exitX=0;exitY=0.5;exitDx=0;exitDy=0;entryX=1;entryY=0.5;entryDx=0;entryDy=0;dashed=1;" edge="1" parent="1" source="H2Y4vnoz1PG0eW4zArF_-32" target="H2Y4vnoz1PG0eW4zArF_-48">
          <mxGeometry relative="1" as="geometry" />
        </mxCell>
        <mxCell id="H2Y4vnoz1PG0eW4zArF_-32" value="상품상세조회" style="ellipse;whiteSpace=wrap;html=1;" vertex="1" parent="1">
          <mxGeometry x="354" y="120" width="120" height="50" as="geometry" />
        </mxCell>
        <mxCell id="H2Y4vnoz1PG0eW4zArF_-38" value="사용자 인증" style="ellipse;whiteSpace=wrap;html=1;" vertex="1" parent="1">
          <mxGeometry x="354" y="360" width="120" height="50" as="geometry" />
        </mxCell>
        <mxCell id="H2Y4vnoz1PG0eW4zArF_-48" value="상품 목록 조회" style="ellipse;whiteSpace=wrap;html=1;" vertex="1" parent="1">
          <mxGeometry x="180" y="180" width="120" height="50" as="geometry" />
        </mxCell>
        <mxCell id="H2Y4vnoz1PG0eW4zArF_-66" style="edgeStyle=orthogonalEdgeStyle;rounded=0;orthogonalLoop=1;jettySize=auto;html=1;exitX=0;exitY=0.3333333333333333;exitDx=0;exitDy=0;exitPerimeter=0;entryX=1;entryY=0.5;entryDx=0;entryDy=0;" edge="1" parent="1" source="H2Y4vnoz1PG0eW4zArF_-51" target="H2Y4vnoz1PG0eW4zArF_-52">
          <mxGeometry relative="1" as="geometry">
            <Array as="points">
              <mxPoint x="970" y="270" />
              <mxPoint x="970" y="185" />
            </Array>
          </mxGeometry>
        </mxCell>
        <mxCell id="H2Y4vnoz1PG0eW4zArF_-74" style="edgeStyle=orthogonalEdgeStyle;rounded=0;orthogonalLoop=1;jettySize=auto;html=1;exitX=0;exitY=0.3333333333333333;exitDx=0;exitDy=0;exitPerimeter=0;entryX=1;entryY=0.5;entryDx=0;entryDy=0;" edge="1" parent="1" source="H2Y4vnoz1PG0eW4zArF_-51" target="H2Y4vnoz1PG0eW4zArF_-67">
          <mxGeometry relative="1" as="geometry">
            <Array as="points">
              <mxPoint x="970" y="270" />
              <mxPoint x="970" y="-10" />
            </Array>
          </mxGeometry>
        </mxCell>
        <mxCell id="H2Y4vnoz1PG0eW4zArF_-75" style="edgeStyle=orthogonalEdgeStyle;rounded=0;orthogonalLoop=1;jettySize=auto;html=1;exitX=0;exitY=0.3333333333333333;exitDx=0;exitDy=0;exitPerimeter=0;entryX=1;entryY=0.5;entryDx=0;entryDy=0;" edge="1" parent="1" source="H2Y4vnoz1PG0eW4zArF_-51" target="H2Y4vnoz1PG0eW4zArF_-60">
          <mxGeometry relative="1" as="geometry">
            <Array as="points">
              <mxPoint x="970" y="270" />
              <mxPoint x="970" y="385" />
            </Array>
          </mxGeometry>
        </mxCell>
        <mxCell id="H2Y4vnoz1PG0eW4zArF_-51" value="관리자" style="shape=umlActor;verticalLabelPosition=bottom;verticalAlign=top;html=1;outlineConnect=0;" vertex="1" parent="1">
          <mxGeometry x="1090" y="250" width="30" height="60" as="geometry" />
        </mxCell>
        <mxCell id="H2Y4vnoz1PG0eW4zArF_-77" style="edgeStyle=orthogonalEdgeStyle;rounded=0;orthogonalLoop=1;jettySize=auto;html=1;exitX=0;exitY=0.5;exitDx=0;exitDy=0;entryX=1;entryY=0.5;entryDx=0;entryDy=0;dashed=1;" edge="1" parent="1" source="H2Y4vnoz1PG0eW4zArF_-52" target="H2Y4vnoz1PG0eW4zArF_-38">
          <mxGeometry relative="1" as="geometry">
            <Array as="points">
              <mxPoint x="520" y="185" />
              <mxPoint x="520" y="385" />
            </Array>
          </mxGeometry>
        </mxCell>
        <mxCell id="H2Y4vnoz1PG0eW4zArF_-52" value="상품관리" style="ellipse;whiteSpace=wrap;html=1;" vertex="1" parent="1">
          <mxGeometry x="670" y="160" width="120" height="50" as="geometry" />
        </mxCell>
        <mxCell id="H2Y4vnoz1PG0eW4zArF_-56" style="edgeStyle=orthogonalEdgeStyle;rounded=0;orthogonalLoop=1;jettySize=auto;html=1;exitX=0.5;exitY=0;exitDx=0;exitDy=0;entryX=0.5;entryY=1;entryDx=0;entryDy=0;" edge="1" parent="1" source="H2Y4vnoz1PG0eW4zArF_-53" target="H2Y4vnoz1PG0eW4zArF_-52">
          <mxGeometry relative="1" as="geometry" />
        </mxCell>
        <mxCell id="H2Y4vnoz1PG0eW4zArF_-53" value="상품수정" style="ellipse;whiteSpace=wrap;html=1;" vertex="1" parent="1">
          <mxGeometry x="670" y="260" width="120" height="50" as="geometry" />
        </mxCell>
        <mxCell id="H2Y4vnoz1PG0eW4zArF_-57" style="edgeStyle=orthogonalEdgeStyle;rounded=0;orthogonalLoop=1;jettySize=auto;html=1;exitX=0.5;exitY=0;exitDx=0;exitDy=0;" edge="1" parent="1" source="H2Y4vnoz1PG0eW4zArF_-54">
          <mxGeometry relative="1" as="geometry">
            <mxPoint x="730" y="210" as="targetPoint" />
          </mxGeometry>
        </mxCell>
        <mxCell id="H2Y4vnoz1PG0eW4zArF_-54" value="상품등록" style="ellipse;whiteSpace=wrap;html=1;" vertex="1" parent="1">
          <mxGeometry x="540" y="260" width="120" height="50" as="geometry" />
        </mxCell>
        <mxCell id="H2Y4vnoz1PG0eW4zArF_-58" style="edgeStyle=orthogonalEdgeStyle;rounded=0;orthogonalLoop=1;jettySize=auto;html=1;exitX=0.5;exitY=0;exitDx=0;exitDy=0;" edge="1" parent="1" source="H2Y4vnoz1PG0eW4zArF_-55">
          <mxGeometry relative="1" as="geometry">
            <mxPoint x="730" y="210" as="targetPoint" />
          </mxGeometry>
        </mxCell>
        <mxCell id="H2Y4vnoz1PG0eW4zArF_-55" value="상품삭제" style="ellipse;whiteSpace=wrap;html=1;" vertex="1" parent="1">
          <mxGeometry x="800" y="260" width="120" height="50" as="geometry" />
        </mxCell>
        <mxCell id="H2Y4vnoz1PG0eW4zArF_-76" style="edgeStyle=orthogonalEdgeStyle;rounded=0;orthogonalLoop=1;jettySize=auto;html=1;exitX=0;exitY=0.5;exitDx=0;exitDy=0;entryX=1;entryY=0.5;entryDx=0;entryDy=0;dashed=1;" edge="1" parent="1" source="H2Y4vnoz1PG0eW4zArF_-60" target="H2Y4vnoz1PG0eW4zArF_-38">
          <mxGeometry relative="1" as="geometry" />
        </mxCell>
        <mxCell id="H2Y4vnoz1PG0eW4zArF_-60" value="회원관리" style="ellipse;whiteSpace=wrap;html=1;" vertex="1" parent="1">
          <mxGeometry x="634" y="360" width="120" height="50" as="geometry" />
        </mxCell>
        <mxCell id="H2Y4vnoz1PG0eW4zArF_-63" style="edgeStyle=orthogonalEdgeStyle;rounded=0;orthogonalLoop=1;jettySize=auto;html=1;exitX=0.5;exitY=0;exitDx=0;exitDy=0;entryX=0.5;entryY=1;entryDx=0;entryDy=0;" edge="1" parent="1" source="H2Y4vnoz1PG0eW4zArF_-61" target="H2Y4vnoz1PG0eW4zArF_-60">
          <mxGeometry relative="1" as="geometry" />
        </mxCell>
        <mxCell id="H2Y4vnoz1PG0eW4zArF_-61" value="회원조회" style="ellipse;whiteSpace=wrap;html=1;" vertex="1" parent="1">
          <mxGeometry x="560" y="445" width="120" height="50" as="geometry" />
        </mxCell>
        <mxCell id="H2Y4vnoz1PG0eW4zArF_-65" style="edgeStyle=orthogonalEdgeStyle;rounded=0;orthogonalLoop=1;jettySize=auto;html=1;exitX=0.5;exitY=0;exitDx=0;exitDy=0;entryX=0.5;entryY=1;entryDx=0;entryDy=0;" edge="1" parent="1" source="H2Y4vnoz1PG0eW4zArF_-62" target="H2Y4vnoz1PG0eW4zArF_-60">
          <mxGeometry relative="1" as="geometry" />
        </mxCell>
        <mxCell id="H2Y4vnoz1PG0eW4zArF_-62" value="회원삭제" style="ellipse;whiteSpace=wrap;html=1;" vertex="1" parent="1">
          <mxGeometry x="704" y="445" width="120" height="50" as="geometry" />
        </mxCell>
        <mxCell id="H2Y4vnoz1PG0eW4zArF_-79" style="edgeStyle=orthogonalEdgeStyle;rounded=0;orthogonalLoop=1;jettySize=auto;html=1;exitX=0;exitY=0.5;exitDx=0;exitDy=0;entryX=1;entryY=0.5;entryDx=0;entryDy=0;dashed=1;" edge="1" parent="1" source="H2Y4vnoz1PG0eW4zArF_-67" target="H2Y4vnoz1PG0eW4zArF_-38">
          <mxGeometry relative="1" as="geometry">
            <Array as="points">
              <mxPoint x="520" y="-10" />
              <mxPoint x="520" y="385" />
            </Array>
          </mxGeometry>
        </mxCell>
        <mxCell id="H2Y4vnoz1PG0eW4zArF_-67" value="카테고리관리" style="ellipse;whiteSpace=wrap;html=1;" vertex="1" parent="1">
          <mxGeometry x="684" y="-35" width="120" height="50" as="geometry" />
        </mxCell>
        <mxCell id="H2Y4vnoz1PG0eW4zArF_-68" style="edgeStyle=orthogonalEdgeStyle;rounded=0;orthogonalLoop=1;jettySize=auto;html=1;exitX=0.5;exitY=0;exitDx=0;exitDy=0;entryX=0.5;entryY=1;entryDx=0;entryDy=0;" edge="1" parent="1" source="H2Y4vnoz1PG0eW4zArF_-69" target="H2Y4vnoz1PG0eW4zArF_-67">
          <mxGeometry relative="1" as="geometry" />
        </mxCell>
        <mxCell id="H2Y4vnoz1PG0eW4zArF_-69" value="카테고리등록" style="ellipse;whiteSpace=wrap;html=1;" vertex="1" parent="1">
          <mxGeometry x="540" y="60" width="120" height="50" as="geometry" />
        </mxCell>
        <mxCell id="H2Y4vnoz1PG0eW4zArF_-70" style="edgeStyle=orthogonalEdgeStyle;rounded=0;orthogonalLoop=1;jettySize=auto;html=1;exitX=0.5;exitY=0;exitDx=0;exitDy=0;entryX=0.5;entryY=1;entryDx=0;entryDy=0;" edge="1" parent="1" source="H2Y4vnoz1PG0eW4zArF_-71" target="H2Y4vnoz1PG0eW4zArF_-67">
          <mxGeometry relative="1" as="geometry" />
        </mxCell>
        <mxCell id="H2Y4vnoz1PG0eW4zArF_-71" value="카테고리수정" style="ellipse;whiteSpace=wrap;html=1;" vertex="1" parent="1">
          <mxGeometry x="684" y="60" width="120" height="50" as="geometry" />
        </mxCell>
        <mxCell id="H2Y4vnoz1PG0eW4zArF_-73" style="edgeStyle=orthogonalEdgeStyle;rounded=0;orthogonalLoop=1;jettySize=auto;html=1;exitX=0.5;exitY=0;exitDx=0;exitDy=0;entryX=0.5;entryY=1;entryDx=0;entryDy=0;" edge="1" parent="1" source="H2Y4vnoz1PG0eW4zArF_-72" target="H2Y4vnoz1PG0eW4zArF_-67">
          <mxGeometry relative="1" as="geometry" />
        </mxCell>
        <mxCell id="H2Y4vnoz1PG0eW4zArF_-72" value="카테고리삭제" style="ellipse;whiteSpace=wrap;html=1;" vertex="1" parent="1">
          <mxGeometry x="820" y="60" width="120" height="50" as="geometry" />
        </mxCell>
      </root>
    </mxGraphModel>
  </diagram>
</mxfile>
